<?xml version="1.0" standalone="no"?>
<!DOCTYPE svg PUBLIC "-//W3C//DTD SVG 20010904//EN"
 "http://www.w3.org/TR/2001/REC-SVG-20010904/DTD/svg10.dtd">
<svg version="1.0" xmlns="http://www.w3.org/2000/svg"
 width="3833.000000pt" height="1648.000000pt" viewBox="0 0 3833.000000 1648.000000"
 preserveAspectRatio="xMidYMid meet">

<g transform="translate(0.000000,1648.000000) scale(0.100000,-0.100000)"
fill="#000000" stroke="none">
<path d="M31164 13660 c-38 -15 -61 -56 -74 -134 -16 -97 -5 -120 66 -130 145
-19 169 -6 193 115 19 90 15 121 -16 137 -26 13 -144 22 -169 12z"/>
<path d="M30473 13130 c-40 -24 -56 -55 -77 -149 -38 -172 -21 -199 138 -214
167 -16 186 -1 221 175 33 160 19 183 -116 198 -116 13 -129 13 -166 -10z"/>
<path d="M31842 12643 c-22 -21 -34 -49 -47 -105 -17 -70 -17 -78 -2 -101 13
-20 29 -26 91 -36 119 -17 140 -1 171 126 25 107 11 124 -118 138 -64 7 -67 6
-95 -22z"/>
<path d="M29785 12626 c-56 -24 -81 -67 -109 -186 -31 -132 -33 -184 -6 -227
24 -40 61 -51 210 -59 94 -6 121 -4 145 9 62 32 73 55 104 206 29 144 29 168
4 207 -19 30 -53 41 -158 53 -116 14 -153 13 -190 -3z"/>
<path d="M31185 12176 c-53 -24 -72 -56 -99 -164 -40 -158 -25 -182 124 -204
165 -24 191 -6 230 163 40 169 32 181 -124 205 -108 16 -94 16 -131 0z"/>
<path d="M28876 11905 c-111 -28 -145 -81 -191 -293 -41 -192 -42 -213 -12
-272 32 -64 63 -76 258 -95 202 -21 232 -15 300 54 l46 46 36 185 c21 102 37
198 37 213 0 43 -25 92 -60 117 -31 22 -68 28 -325 53 -22 2 -62 -1 -89 -8z"/>
<path d="M32487 11729 c-36 -32 -70 -156 -56 -199 12 -33 17 -35 107 -49 64
-10 98 -4 119 20 6 8 21 51 32 97 31 118 18 135 -112 148 -57 6 -66 4 -90 -17z"/>
<path d="M30445 11643 c-67 -17 -99 -65 -136 -210 -37 -139 -35 -185 9 -224
24 -22 47 -28 155 -43 204 -29 226 -13 282 198 56 215 45 237 -137 267 -115
19 -138 20 -173 12z"/>
<path d="M31771 11172 c-48 -24 -69 -57 -91 -143 -42 -160 -24 -199 103 -217
102 -16 132 -15 167 3 38 20 44 31 74 152 32 124 32 135 4 167 -19 20 -41 27
-119 40 -116 19 -97 19 -138 -2z"/>
<path d="M27873 11166 c-84 -27 -143 -77 -184 -157 -22 -44 -109 -431 -109
-487 0 -54 18 -112 47 -150 44 -59 79 -69 329 -93 216 -21 232 -21 284 -6 57
17 123 65 160 116 23 33 120 483 120 557 0 25 -6 59 -13 77 -16 38 -87 104
-119 112 -35 8 -405 45 -441 44 -18 0 -51 -6 -74 -13z"/>
<path d="M29505 11011 c-41 -18 -99 -76 -116 -115 -5 -11 -27 -93 -49 -181
-44 -170 -45 -205 -10 -263 28 -46 61 -58 219 -81 173 -26 214 -26 266 -2 80
36 95 66 148 283 53 213 53 232 7 291 -27 35 -57 44 -213 67 -169 24 -201 25
-252 1z"/>
<path d="M33053 10767 c-25 -33 -57 -149 -49 -182 9 -34 34 -45 123 -52 95 -7
104 0 134 108 33 118 20 136 -109 146 -76 5 -79 5 -99 -20z"/>
<path d="M31050 10619 c-61 -24 -80 -59 -120 -215 -34 -130 -31 -176 15 -212
28 -22 256 -59 299 -48 15 4 42 21 61 39 31 29 38 47 70 175 33 132 34 145 21
176 -20 48 -47 62 -157 80 -109 18 -153 19 -189 5z"/>
<path d="M26850 10526 c-30 -7 -73 -21 -95 -31 -54 -26 -128 -102 -159 -163
-30 -59 -136 -528 -136 -601 0 -110 52 -206 134 -246 44 -21 88 -28 311 -51
143 -15 262 -28 264 -30 2 -2 -20 -97 -49 -210 -58 -226 -61 -279 -22 -367 24
-53 89 -113 139 -126 21 -6 153 -27 293 -47 140 -20 256 -38 258 -39 1 -1 -25
-105 -58 -231 -63 -242 -71 -304 -46 -387 19 -63 49 -102 102 -133 39 -23 85
-33 318 -68 l273 -41 -54 -200 c-29 -110 -56 -227 -59 -261 -12 -113 39 -219
125 -264 50 -25 516 -94 597 -87 74 5 138 33 193 83 l42 38 -30 -50 c-46 -74
-162 -504 -164 -604 -2 -122 52 -214 148 -250 16 -6 139 -27 274 -47 270 -38
346 -40 422 -6 49 22 117 78 149 123 11 16 52 154 96 326 87 342 90 377 38
460 -53 87 -83 98 -379 144 -323 51 -372 47 -489 -37 -28 -20 -46 -30 -39 -22
19 23 163 590 163 641 0 84 -39 158 -108 203 -31 20 -78 30 -274 59 -130 20
-258 36 -283 36 -25 0 -45 5 -45 10 0 6 27 120 61 253 66 262 72 319 41 389
-22 50 -79 111 -120 127 -35 14 -472 81 -528 81 -26 0 -44 5 -44 11 0 6 27
122 60 256 33 135 60 262 60 282 -1 80 -51 164 -123 205 -35 20 -88 31 -312
62 -148 21 -272 39 -273 40 -2 2 17 102 42 224 49 238 55 300 31 358 -19 43
-77 107 -120 129 -19 10 -123 26 -290 44 -296 32 -264 31 -335 15z"/>
<path d="M28557 10379 c-84 -20 -162 -81 -203 -161 -23 -44 -124 -434 -124
-479 0 -90 43 -166 115 -202 32 -16 392 -70 462 -69 56 0 109 18 159 54 73 52
83 74 150 342 35 138 64 260 64 271 0 68 -59 161 -118 183 -26 11 -429 73
-455 71 -6 -1 -29 -5 -50 -10z"/>
<path d="M32435 10220 c-39 -16 -67 -59 -91 -141 -37 -128 -31 -176 23 -197
15 -6 67 -16 114 -22 72 -10 91 -9 122 3 44 19 54 38 83 152 29 112 29 128 2
159 -19 21 -40 28 -118 41 -107 17 -107 17 -135 5z"/>
<path d="M30125 10131 c-57 -26 -110 -89 -128 -152 -80 -279 -88 -340 -48
-405 27 -44 69 -59 226 -83 170 -26 199 -26 251 -2 75 34 94 70 144 268 48
195 51 238 21 287 -30 47 -70 63 -219 86 -162 24 -196 25 -247 1z"/>
<path d="M33723 9885 c-14 -10 -30 -42 -43 -84 -36 -123 -26 -143 83 -159 108
-17 132 0 162 117 27 106 12 126 -107 136 -58 5 -77 3 -95 -10z"/>
<path d="M31640 9631 c-51 -27 -69 -57 -101 -172 -44 -159 -37 -222 28 -247
15 -6 78 -18 139 -27 187 -29 214 -9 268 197 34 128 36 140 22 172 -20 49 -47
62 -162 80 -129 20 -152 20 -194 -3z"/>
<path d="M25716 9550 c-111 -28 -217 -117 -270 -226 -34 -68 -146 -578 -146
-662 0 -122 49 -217 138 -265 47 -26 73 -31 284 -53 127 -13 233 -26 236 -29
2 -2 -13 -69 -33 -147 -58 -218 -51 -337 25 -430 52 -63 95 -76 388 -119 147
-21 282 -39 300 -39 17 0 32 -5 32 -11 0 -7 -23 -98 -51 -203 -43 -157 -52
-206 -52 -276 -1 -95 21 -161 71 -213 52 -55 93 -68 354 -107 136 -20 250 -39
254 -42 3 -3 -17 -89 -45 -191 -55 -200 -62 -266 -36 -353 19 -65 72 -126 132
-152 31 -13 149 -35 328 -62 154 -23 281 -42 282 -43 1 -2 -16 -70 -37 -152
-60 -228 -51 -334 35 -420 56 -57 84 -64 417 -111 247 -35 271 -37 329 -25 35
7 80 22 102 33 48 24 120 90 146 132 31 52 176 631 175 702 -1 100 -59 186
-155 228 -35 15 -477 85 -561 88 -27 1 -48 3 -48 4 0 1 20 80 45 176 52 201
56 259 21 334 -27 58 -94 120 -146 134 -19 6 -143 26 -275 46 -132 20 -241 37
-242 37 0 1 23 101 54 222 61 246 67 315 36 386 -20 45 -95 121 -136 139 -27
12 -532 90 -582 90 -30 0 -35 3 -31 18 23 74 116 480 116 507 0 86 -71 197
-152 238 -19 10 -133 31 -272 52 -132 19 -240 36 -242 38 -1 1 15 88 37 192
57 269 48 330 -61 428 -61 55 -83 61 -255 77 -71 6 -160 16 -198 21 -106 15
-268 19 -311 9z"/>
<path d="M29115 9538 c-50 -18 -108 -65 -143 -116 -41 -61 -142 -424 -142
-515 0 -90 37 -159 105 -194 33 -18 374 -73 451 -73 61 0 105 14 160 51 72 49
86 82 154 357 58 236 61 257 50 299 -6 26 -20 59 -31 74 -42 59 -68 69 -271
100 -200 30 -283 35 -333 17z"/>
<path d="M33073 9379 c-33 -21 -48 -52 -77 -161 -35 -125 -14 -158 107 -176
177 -27 204 -12 242 138 42 165 33 186 -91 206 -110 18 -144 17 -181 -7z"/>
<path d="M30725 9146 c-37 -17 -100 -82 -113 -116 -24 -64 -82 -302 -82 -336
0 -47 26 -101 61 -126 18 -14 74 -26 193 -44 201 -29 235 -24 301 40 41 40 43
44 90 233 53 216 53 237 -9 291 -29 26 -49 31 -172 51 -158 24 -226 26 -269 7z"/>
<path d="M32300 8738 c-52 -36 -67 -64 -102 -190 -28 -105 -30 -121 -19 -157
16 -55 42 -70 158 -87 123 -19 164 -19 201 0 50 26 65 56 101 198 31 122 33
139 21 168 -19 46 -43 57 -158 75 -136 20 -163 19 -202 -7z"/>
<path d="M29696 8655 c-98 -35 -161 -118 -201 -266 -15 -57 -36 -135 -47 -172
-55 -192 -34 -302 65 -354 18 -9 127 -31 245 -48 215 -33 253 -33 327 -5 44
17 110 75 128 112 8 18 41 134 72 258 63 248 66 293 25 353 -45 66 -75 78
-273 108 -202 31 -283 35 -341 14z"/>
<path d="M31485 8395 c-38 -10 -61 -25 -96 -63 -44 -48 -47 -57 -88 -213 -49
-187 -49 -228 0 -284 17 -19 38 -36 47 -39 32 -10 293 -46 333 -46 54 0 105
23 144 64 29 31 38 56 81 229 l48 193 -22 45 c-12 24 -35 52 -51 62 -21 12
-322 71 -343 66 -2 0 -25 -6 -53 -14z"/>
<path d="M30450 7821 c-72 -22 -146 -84 -180 -151 -23 -47 -120 -417 -120
-460 0 -81 40 -154 103 -186 32 -17 383 -74 458 -74 85 0 172 44 220 111 28
39 139 464 139 532 0 62 -30 120 -79 153 -32 21 -72 31 -223 55 -183 28 -271
34 -318 20z"/>
<path d="M6850 6627 c0 -34 -48 -297 -132 -726 l-71 -364 -22 62 c-56 153
-200 241 -395 241 -300 0 -593 -205 -736 -515 -68 -147 -111 -374 -99 -515 8
-85 44 -203 79 -258 26 -41 106 -120 146 -144 101 -61 277 -84 414 -54 150 34
318 141 411 264 19 25 35 42 35 40 0 -3 -13 -65 -30 -138 -16 -73 -30 -135
-30 -139 0 -3 53 -6 119 -6 l118 0 33 180 c110 615 386 1925 431 2043 17 45
12 55 -26 48 -47 -9 -141 -9 -199 -1 -44 7 -46 6 -46 -18z m-424 -957 c169
-83 214 -293 133 -619 -96 -387 -369 -641 -634 -592 -202 37 -288 199 -257
480 23 209 82 382 178 528 63 94 125 153 207 194 80 41 119 49 220 45 74 -3
97 -8 153 -36z"/>
<path d="M23436 6629 c-3 -13 -19 -103 -36 -200 -29 -174 -156 -826 -166 -863
-5 -14 -12 -4 -28 36 -70 171 -213 249 -434 236 -308 -19 -605 -255 -723 -577
-69 -190 -92 -420 -54 -560 63 -240 252 -371 515 -359 181 9 342 88 479 234
39 42 71 74 71 71 0 -3 -13 -64 -30 -135 -16 -72 -30 -132 -30 -134 0 -1 54
-3 120 -3 66 0 120 1 120 3 0 16 136 731 186 977 82 404 203 953 253 1147 l39
150 -45 -7 c-57 -8 -151 -8 -197 1 -31 5 -36 3 -40 -17z m-492 -934 c76 -20
133 -59 173 -118 43 -65 54 -103 60 -222 9 -172 -37 -367 -128 -545 -87 -169
-203 -284 -336 -332 -87 -31 -211 -29 -284 4 -68 31 -116 78 -146 144 -83 182
-22 568 129 821 69 117 207 227 314 252 61 14 154 12 218 -4z"/>
<path d="M5085 6479 c-16 -4 -46 -22 -66 -38 -117 -97 -79 -261 60 -261 53 0
89 15 130 53 62 59 78 134 41 195 -32 52 -95 72 -165 51z"/>
<path d="M16682 6464 c-72 -36 -107 -89 -107 -162 0 -49 3 -56 39 -89 36 -34
41 -35 97 -31 200 14 254 280 62 305 -28 3 -52 -3 -91 -23z"/>
<path d="M15781 6160 c-68 -27 -127 -52 -131 -57 -4 -4 -17 -73 -29 -153 -31
-204 -16 -183 -131 -175 l-97 7 -6 -44 c-4 -23 -10 -53 -13 -65 -6 -23 -5 -23
95 -23 79 0 101 -3 101 -14 0 -15 -81 -380 -155 -701 -51 -221 -65 -349 -45
-419 41 -147 223 -210 454 -157 l95 22 7 35 c3 19 5 37 3 39 -2 2 -24 -1 -49
-5 -120 -24 -216 2 -253 68 -25 43 -32 133 -18 233 14 95 100 505 157 742 l38
157 162 0 162 0 11 50 c18 84 30 78 -150 72 -155 -5 -161 -4 -156 14 3 10 27
104 52 208 26 105 49 196 52 203 9 22 -26 14 -156 -37z"/>
<path d="M7790 5825 c-304 -63 -527 -267 -639 -588 -67 -190 -83 -318 -57
-448 36 -177 130 -302 286 -377 240 -117 550 -87 826 80 48 29 53 35 74 104
13 41 21 76 18 80 -3 3 -30 -13 -59 -36 -125 -95 -325 -170 -456 -170 -201 0
-345 92 -406 258 -24 68 -27 232 -5 322 l13 55 532 3 532 2 11 38 c21 80 30
147 30 227 0 235 -135 401 -365 450 -85 18 -247 18 -335 0z m269 -101 c70 -20
132 -82 157 -155 20 -58 27 -238 11 -311 l-8 -38 -401 0 -400 0 6 31 c10 54
91 211 141 278 130 171 321 247 494 195z"/>
<path d="M9275 5823 c-93 -20 -211 -67 -293 -117 l-67 -42 -16 -77 c-16 -74
-16 -77 2 -77 9 0 40 22 67 48 93 90 245 152 378 152 192 0 285 -106 271 -308
-7 -97 -28 -147 -75 -179 -39 -26 -149 -52 -362 -87 -182 -30 -241 -46 -331
-92 -134 -67 -221 -177 -255 -320 -26 -113 -5 -200 66 -278 90 -97 257 -131
431 -87 104 26 185 65 280 135 l74 54 11 -43 c24 -97 71 -130 184 -129 70 0
184 25 193 42 2 4 7 19 11 35 6 27 6 27 -34 21 -75 -12 -120 25 -120 100 0 41
30 190 111 546 75 331 81 417 37 511 -64 139 -203 210 -403 208 -49 0 -121 -7
-160 -16z m285 -715 c0 -7 -21 -107 -47 -223 l-48 -210 -45 -44 c-93 -91 -210
-149 -320 -158 -166 -14 -259 75 -248 234 7 91 39 162 99 218 84 79 188 116
479 174 120 23 130 24 130 9z"/>
<path d="M10741 5829 c-248 -48 -419 -210 -467 -442 -26 -123 -3 -209 74 -279
54 -49 63 -53 250 -119 230 -81 277 -122 269 -234 -11 -148 -126 -265 -289
-295 -136 -25 -289 46 -349 163 -12 23 -27 37 -38 37 -14 0 -23 -11 -31 -37
-7 -21 -30 -70 -51 -110 l-39 -72 22 -15 c110 -72 322 -105 484 -75 254 46
483 257 525 483 17 92 -6 184 -59 239 -44 46 -104 75 -266 127 -224 73 -276
114 -276 221 0 148 106 270 260 299 126 24 254 -47 277 -152 4 -20 11 -28 27
-28 16 1 29 18 58 78 20 42 46 91 58 108 l21 32 -87 31 c-47 17 -105 36 -128
41 -50 12 -184 11 -245 -1z"/>
<path d="M12870 5824 c-36 -7 -92 -23 -125 -35 -67 -24 -217 -102 -232 -121
-6 -7 -17 -46 -26 -85 -13 -68 -13 -73 2 -73 10 0 40 22 69 50 101 97 262 156
403 147 163 -11 249 -101 249 -261 -1 -73 -23 -172 -46 -197 -39 -44 -151 -75
-404 -114 -349 -54 -521 -176 -576 -411 -63 -270 179 -446 499 -365 100 26
168 59 269 131 l83 60 7 -43 c16 -90 76 -132 188 -131 70 0 184 25 193 42 2 4
7 19 11 35 6 27 6 27 -34 21 -75 -12 -120 25 -120 100 0 41 42 249 116 571 70
304 76 394 32 487 -64 137 -204 209 -403 207 -49 0 -119 -7 -155 -15z m280
-718 c0 -27 -90 -412 -102 -434 -7 -13 -40 -46 -74 -73 -213 -169 -456 -171
-520 -4 -24 64 -16 173 19 240 69 136 187 193 547 264 121 23 130 24 130 7z"/>
<path d="M14595 5833 c-63 -8 -199 -46 -265 -73 -333 -137 -552 -473 -553
-850 -1 -82 4 -132 17 -175 55 -186 193 -317 392 -370 94 -26 255 -31 354 -11
106 22 266 84 345 134 58 37 61 41 83 111 13 40 21 75 19 78 -3 2 -33 -16 -68
-42 -185 -136 -407 -192 -589 -149 -118 27 -192 87 -243 194 -27 57 -31 77
-35 177 -11 292 112 613 290 753 113 90 216 125 368 125 93 0 112 -3 163 -27
64 -30 156 -117 176 -167 13 -31 51 -45 51 -18 0 7 22 51 49 97 l50 85 -31 27
c-40 35 -148 74 -255 93 -78 14 -244 18 -318 8z"/>
<path d="M17785 5833 c-350 -56 -612 -271 -721 -590 -153 -450 -25 -776 346
-880 90 -25 337 -25 430 0 208 57 349 142 475 289 183 213 270 579 195 821
-21 69 -80 166 -126 209 -49 45 -145 97 -229 124 -65 21 -104 27 -210 29 -71
2 -143 1 -160 -2z m217 -104 c76 -16 119 -41 172 -99 84 -94 112 -252 82 -458
-59 -399 -239 -661 -494 -718 -115 -25 -226 -16 -310 27 -117 60 -170 160
-179 335 -12 221 62 505 175 671 134 198 339 287 554 242z"/>
<path d="M19611 5825 c-118 -26 -230 -89 -341 -191 -33 -31 -60 -52 -60 -48 0
5 11 55 25 112 14 57 25 104 25 105 0 1 -58 2 -130 2 -71 0 -130 -1 -130 -2 0
-26 -38 -281 -61 -408 -67 -375 -184 -907 -218 -996 l-9 -24 141 2 141 1 17
134 c30 236 119 697 154 803 80 236 247 365 473 365 83 0 131 -19 184 -71 115
-115 106 -257 -63 -962 -32 -136 -59 -253 -59 -260 0 -9 33 -12 127 -11 l128
1 8 49 c18 118 81 428 133 654 85 375 85 508 -4 625 -87 114 -282 163 -481
120z"/>
<path d="M21142 5829 c-304 -51 -545 -270 -661 -601 -81 -232 -82 -425 -4
-588 33 -69 150 -188 218 -222 181 -92 404 -102 618 -28 108 37 143 52 215 95
59 34 61 37 86 112 14 42 24 78 22 81 -3 2 -34 -17 -69 -42 -189 -135 -396
-191 -569 -155 -124 26 -237 118 -279 227 -31 79 -37 225 -14 326 l16 76 531
2 531 3 13 45 c27 87 37 211 25 291 -38 250 -230 391 -531 388 -52 -1 -119 -5
-148 -10z m249 -105 c74 -22 138 -88 163 -168 15 -47 18 -81 14 -184 -2 -70
-7 -133 -11 -139 -6 -10 -99 -13 -408 -13 -219 0 -399 2 -399 3 0 15 44 125
73 183 59 117 166 237 251 281 98 52 219 66 317 37z"/>
<path d="M4865 5795 c-2 -5 -12 -82 -24 -170 -33 -244 -177 -959 -232 -1150
-11 -38 -22 -77 -25 -85 -3 -13 17 -15 136 -15 l139 0 6 50 c36 283 175 1004
240 1239 19 70 35 131 35 135 0 10 -272 7 -275 -4z"/>
<path d="M16486 5775 c-3 -16 -14 -97 -26 -180 -38 -270 -188 -995 -243 -1175
l-14 -45 141 1 141 2 3 28 c19 205 150 895 227 1199 23 94 46 177 49 185 5 13
-13 15 -134 15 l-140 0 -4 -30z"/>
<path d="M6010 3307 c-59 -45 -132 -137 -147 -184 -6 -21 -12 -64 -12 -95 -1
-56 -2 -57 -43 -80 -22 -13 -40 -27 -40 -33 1 -5 20 -11 42 -13 l40 -3 -1
-192 c-1 -106 -4 -203 -8 -217 -5 -19 -16 -27 -49 -34 -25 -5 -42 -15 -42 -23
0 -11 30 -13 168 -11 167 3 217 16 118 30 -27 4 -54 12 -60 18 -7 7 -12 85
-14 225 l-3 215 80 0 c63 0 81 3 81 14 0 8 3 21 6 30 5 14 -6 16 -80 16 l-86
0 0 105 c0 57 5 115 11 128 20 45 81 59 133 32 15 -8 32 -15 38 -15 5 0 8 26
6 58 l-3 57 -45 3 c-39 2 -52 -2 -90 -31z"/>
<path d="M13590 3331 c-8 -5 -48 -16 -89 -24 -106 -22 -118 -42 -31 -49 27 -2
36 -8 41 -28 7 -26 12 -240 5 -240 -2 0 -23 7 -46 15 -74 26 -139 20 -220 -22
-111 -57 -156 -102 -180 -180 -65 -212 45 -403 232 -403 70 0 85 7 158 72 l55
49 3 -51 3 -51 107 3 c113 3 137 16 64 33 -24 6 -47 17 -53 25 -5 9 -9 191 -8
435 0 438 0 440 -41 416z m-189 -383 c19 -6 53 -24 77 -40 l42 -29 0 -130 c0
-147 -9 -179 -66 -228 -65 -58 -159 -50 -224 18 -44 46 -62 102 -61 197 0 112
31 171 106 205 47 22 79 23 126 7z"/>
<path d="M25570 3331 c-8 -5 -48 -16 -89 -24 -106 -22 -118 -42 -31 -49 33 -3
35 -5 42 -48 8 -57 8 -675 -1 -715 -5 -25 -12 -31 -49 -39 -24 -5 -42 -15 -42
-22 0 -11 31 -14 155 -14 125 0 155 3 155 14 0 9 -16 16 -44 20 -34 5 -45 12
-50 29 -3 12 -6 98 -6 191 l0 169 43 42 c34 34 52 45 90 50 63 10 115 -10 145
-55 22 -33 23 -40 22 -244 l-2 -211 106 -3 c86 -2 106 0 106 11 0 9 -15 16
-41 20 -22 3 -44 8 -47 12 -4 4 -9 102 -12 218 -6 238 -11 258 -79 302 -42 28
-118 41 -175 31 -22 -4 -57 -26 -93 -57 l-58 -51 -3 216 c-2 222 -4 229 -42
207z"/>
<path d="M27760 3331 c-8 -5 -48 -16 -89 -24 -106 -22 -118 -42 -31 -49 27 -2
36 -8 41 -28 11 -39 10 -715 -1 -744 -7 -20 -19 -27 -50 -32 -24 -4 -40 -12
-40 -20 0 -11 30 -14 155 -14 125 0 155 3 155 14 0 8 -16 16 -40 20 -32 5 -43
12 -51 32 -6 16 -9 189 -9 438 1 429 1 431 -40 407z"/>
<path d="M14488 3294 c-246 -59 -391 -276 -349 -520 40 -229 231 -373 497
-374 83 0 207 26 263 55 31 16 67 70 53 79 -5 3 -30 -6 -58 -19 -116 -58 -294
-56 -412 4 -75 38 -154 123 -181 196 -41 109 -36 266 10 357 88 172 314 236
506 142 l52 -25 7 -60 c5 -48 10 -59 25 -59 19 0 21 7 34 114 4 27 9 54 11 61
5 11 -59 34 -156 55 -65 14 -235 11 -302 -6z"/>
<path d="M9630 3280 c-43 -43 -11 -120 50 -120 36 0 70 34 70 70 0 60 -78 92
-120 50z"/>
<path d="M19560 3280 c-43 -43 -11 -120 50 -120 36 0 70 34 70 70 0 60 -78 92
-120 50z"/>
<path d="M21540 3280 c-43 -43 -11 -120 50 -120 36 0 70 34 70 70 0 60 -78 92
-120 50z"/>
<path d="M30780 3292 c0 -11 -145 -345 -266 -612 -46 -102 -94 -193 -105 -202
-12 -10 -34 -18 -50 -18 -22 0 -29 -5 -29 -20 0 -19 7 -20 145 -20 138 0 145
1 145 20 0 15 -7 20 -27 20 -86 1 -91 22 -33 155 l38 90 179 2 178 3 43 -103
c23 -57 42 -110 42 -119 0 -16 -38 -28 -86 -28 -17 0 -24 -6 -24 -20 0 -19 7
-20 170 -20 163 0 170 1 170 20 0 15 -7 20 -25 20 -14 0 -36 10 -48 23 -24 23
-32 42 -241 527 -114 266 -124 285 -149 288 -15 2 -27 -1 -27 -6z m79 -356
c39 -93 69 -171 67 -173 -2 -2 -71 -2 -153 -1 l-150 3 76 177 c41 98 78 174
82 170 4 -4 39 -83 78 -176z"/>
<path d="M4580 3271 c0 -15 10 -20 52 -25 29 -4 56 -13 60 -19 4 -7 8 -175 8
-373 0 -277 -3 -364 -12 -372 -7 -5 -34 -13 -60 -17 -38 -6 -48 -11 -48 -26 0
-18 10 -19 185 -19 174 0 185 1 185 19 0 15 -10 20 -52 25 -29 4 -56 13 -60
19 -4 7 -8 174 -8 372 0 198 4 365 8 372 4 6 31 15 60 19 42 5 52 10 52 25 0
18 -11 19 -185 19 -174 0 -185 -1 -185 -19z"/>
<path d="M23554 3229 c3 -34 6 -79 6 -100 0 -32 4 -39 19 -39 16 0 21 9 26 48
13 103 12 102 160 102 l82 0 7 -37 c8 -51 6 -672 -3 -703 -6 -21 -16 -26 -61
-35 -37 -7 -55 -15 -55 -25 0 -13 29 -15 183 -18 174 -2 182 -2 182 17 0 15
-10 20 -50 26 -34 5 -54 13 -60 25 -6 11 -10 164 -10 385 l0 367 111 -4 c125
-4 139 -12 139 -79 0 -50 8 -69 30 -69 17 0 19 11 22 96 2 53 1 98 -1 100 -2
2 -168 4 -369 4 l-365 0 7 -61z"/>
<path d="M9263 3184 l-53 -25 0 -95 0 -95 -45 -20 c-25 -11 -45 -26 -45 -34 0
-11 12 -15 45 -15 l45 0 0 -205 c0 -229 5 -252 62 -281 22 -11 48 -15 84 -12
43 4 60 11 92 40 46 42 43 64 -6 47 -41 -14 -99 -4 -112 21 -6 11 -10 100 -10
209 l0 190 82 3 c80 3 82 4 89 31 l7 27 -89 0 -90 0 7 120 c4 70 3 120 -2 119
-5 0 -33 -12 -61 -25z"/>
<path d="M21173 3184 l-53 -25 0 -95 0 -95 -45 -20 c-25 -11 -45 -26 -45 -34
0 -11 12 -15 45 -15 l45 0 0 -205 c0 -229 5 -252 62 -281 22 -11 48 -15 84
-12 43 4 60 11 92 40 46 42 43 64 -6 47 -41 -14 -99 -4 -112 21 -6 11 -10 100
-10 209 l0 190 82 3 c80 3 82 4 89 31 l7 27 -89 0 -90 0 7 120 c4 70 3 120 -2
119 -5 0 -33 -12 -61 -25z"/>
<path d="M5160 3011 c-8 -5 -47 -16 -87 -24 -39 -8 -76 -18 -82 -22 -20 -12
-1 -25 38 -25 20 0 42 -5 49 -12 15 -15 17 -403 3 -441 -7 -19 -20 -27 -50
-32 -25 -4 -41 -12 -41 -21 0 -11 28 -14 155 -14 125 0 155 3 155 14 0 8 -16
16 -40 20 -31 5 -43 12 -50 32 -13 34 -13 337 1 366 16 35 82 77 131 84 57 8
111 -15 138 -58 18 -30 20 -50 20 -245 l0 -213 105 0 c82 0 105 3 105 14 0 8
-16 15 -41 19 -22 3 -44 8 -47 12 -4 4 -9 102 -12 218 -5 222 -10 247 -57 289
-48 43 -155 62 -220 37 -15 -5 -44 -25 -63 -43 -73 -67 -73 -67 -69 -6 4 57
-7 71 -41 51z"/>
<path d="M6374 2999 c-71 -27 -136 -87 -165 -151 -33 -75 -34 -201 -1 -273 27
-59 82 -119 137 -148 33 -18 57 -22 130 -22 78 0 97 4 141 27 119 63 180 175
172 316 -5 89 -22 129 -81 190 -77 79 -219 105 -333 61z m170 -39 c45 -21 89
-80 109 -145 6 -22 12 -85 12 -140 -1 -112 -20 -166 -73 -204 -59 -42 -149
-34 -205 17 -78 70 -111 297 -58 401 44 85 129 113 215 71z"/>
<path d="M6995 3000 c-33 -10 -77 -21 -97 -25 -56 -9 -50 -33 10 -37 l47 -3 7
-45 c8 -55 8 -260 -1 -355 l-6 -69 -45 -11 c-82 -20 -43 -30 125 -33 138 -2
165 0 165 12 0 10 -17 16 -52 21 -29 4 -56 13 -60 19 -4 6 -8 84 -8 174 0 183
9 221 59 246 44 23 69 20 103 -14 46 -47 54 -40 61 47 7 91 3 96 -68 90 -46
-4 -54 -9 -102 -62 l-53 -58 0 61 c0 70 3 68 -85 42z"/>
<path d="M7485 3000 c-33 -10 -77 -21 -97 -25 -56 -9 -50 -33 10 -37 l47 -3 7
-45 c8 -56 8 -273 -1 -360 l-6 -64 -45 -11 c-83 -20 -49 -30 113 -33 130 -2
157 0 157 12 0 9 -16 16 -44 20 -26 4 -47 13 -50 22 -3 9 -6 98 -6 198 0 205
3 215 74 247 51 23 78 24 122 3 54 -26 67 -62 72 -199 2 -66 0 -151 -5 -190
l-8 -69 -45 -11 c-25 -6 -44 -15 -43 -20 2 -6 71 -11 158 -13 128 -2 155 0
155 12 0 9 -16 16 -44 20 -26 4 -47 13 -50 22 -3 9 -6 97 -6 196 0 207 5 223
85 253 57 22 105 14 144 -25 38 -38 46 -104 39 -322 l-5 -159 103 3 c108 3
137 17 65 31 -31 6 -42 14 -46 30 -2 12 -6 108 -8 212 -2 161 -6 196 -21 228
-35 71 -128 110 -220 93 -22 -4 -57 -26 -92 -56 l-57 -50 -23 34 c-43 63 -154
94 -231 65 -15 -5 -47 -29 -70 -52 l-43 -41 0 52 c0 59 2 58 -85 32z"/>
<path d="M8675 3002 c-28 -10 -65 -28 -83 -41 -30 -21 -33 -28 -30 -64 4 -58
29 -61 51 -7 20 51 69 75 136 66 77 -11 111 -47 125 -131 l7 -41 -88 -16
c-231 -45 -292 -95 -281 -234 7 -84 65 -134 155 -134 56 0 71 8 154 74 l61 49
-4 -49 -3 -49 98 -3 c77 -2 98 0 95 10 -3 7 -21 17 -41 22 -48 12 -52 34 -44
234 5 102 3 169 -5 199 -28 111 -164 163 -303 115z m205 -346 l0 -84 -41 -36
c-96 -82 -200 -69 -215 26 -10 56 18 105 70 129 35 15 134 42 179 48 4 1 7
-37 7 -83z"/>
<path d="M9700 3011 c-8 -5 -47 -16 -87 -24 -39 -8 -76 -18 -82 -22 -20 -12 0
-25 39 -25 29 0 42 -5 50 -19 11 -22 12 -390 1 -431 -5 -19 -16 -27 -49 -34
-24 -5 -42 -15 -42 -22 0 -11 31 -14 155 -14 125 0 155 3 155 14 0 9 -16 16
-44 20 -34 5 -45 12 -50 29 -3 12 -6 138 -6 280 0 266 -1 271 -40 248z"/>
<path d="M10104 2999 c-71 -27 -136 -87 -165 -151 -33 -75 -34 -201 -1 -273
27 -59 82 -119 137 -148 33 -18 57 -22 130 -22 78 0 97 4 141 27 119 63 180
175 172 316 -5 89 -22 129 -81 190 -77 79 -219 105 -333 61z m170 -39 c45 -21
89 -80 109 -145 6 -22 12 -85 12 -140 -1 -112 -20 -166 -73 -204 -59 -42 -149
-34 -205 17 -78 70 -111 297 -58 401 44 85 129 113 215 71z"/>
<path d="M10750 3011 c-8 -5 -47 -16 -87 -24 -39 -8 -76 -18 -82 -22 -20 -12
-1 -25 38 -25 20 0 42 -5 49 -12 15 -15 17 -403 3 -441 -7 -19 -20 -27 -50
-32 -25 -4 -41 -12 -41 -21 0 -11 28 -14 155 -14 125 0 155 3 155 14 0 8 -16
16 -40 20 -31 5 -43 12 -50 32 -13 34 -13 337 1 366 16 35 82 77 131 84 57 8
111 -15 138 -58 18 -30 20 -50 20 -245 l0 -213 105 0 c82 0 105 3 105 14 0 8
-16 15 -41 19 -22 3 -44 8 -47 12 -4 4 -9 102 -12 218 -5 222 -10 247 -57 289
-48 43 -155 62 -220 37 -15 -5 -44 -25 -63 -43 -73 -67 -73 -67 -69 -6 4 57
-7 71 -41 51z"/>
<path d="M11835 3002 c-28 -10 -65 -28 -83 -41 -30 -21 -33 -28 -30 -64 4 -58
29 -61 51 -7 20 51 69 75 136 66 77 -11 111 -47 125 -131 l7 -41 -88 -16
c-231 -45 -292 -95 -281 -234 7 -84 65 -134 155 -134 56 0 71 8 154 74 l61 49
-4 -49 -3 -49 98 -3 c77 -2 98 0 95 10 -3 7 -21 17 -41 22 -48 12 -52 34 -44
234 5 102 3 169 -5 199 -28 111 -164 163 -303 115z m205 -346 l0 -84 -41 -36
c-96 -82 -200 -69 -215 26 -10 56 18 105 70 129 35 15 134 42 179 48 4 1 7
-37 7 -83z"/>
<path d="M12440 3011 c-8 -5 -47 -16 -87 -24 -39 -8 -76 -18 -82 -22 -20 -12
-1 -25 38 -25 20 0 42 -5 49 -12 15 -15 17 -403 3 -441 -7 -19 -20 -27 -50
-32 -25 -4 -41 -12 -41 -21 0 -11 28 -14 155 -14 125 0 155 3 155 14 0 8 -16
16 -40 20 -31 5 -43 12 -50 32 -13 34 -13 337 1 366 16 35 82 77 131 84 57 8
111 -15 138 -58 18 -30 20 -50 20 -245 l0 -213 105 0 c82 0 105 3 105 14 0 8
-16 15 -41 19 -22 3 -44 8 -47 12 -4 4 -9 102 -12 218 -5 222 -10 247 -57 289
-48 43 -155 62 -220 37 -15 -5 -44 -25 -63 -43 -73 -67 -73 -67 -69 -6 4 57
-7 71 -41 51z"/>
<path d="M15224 2999 c-71 -27 -136 -87 -165 -151 -33 -75 -34 -201 -1 -273
27 -59 82 -119 137 -148 33 -18 57 -22 130 -22 78 0 97 4 141 27 119 63 180
175 172 316 -5 89 -22 129 -81 190 -77 79 -219 105 -333 61z m170 -39 c45 -21
89 -80 109 -145 6 -22 12 -85 12 -140 -1 -112 -20 -166 -73 -204 -59 -42 -149
-34 -205 17 -78 70 -111 297 -58 401 44 85 129 113 215 71z"/>
<path d="M15835 3000 c-33 -10 -77 -21 -97 -25 -56 -9 -50 -33 10 -37 l47 -3
7 -45 c8 -56 8 -273 -1 -360 l-6 -64 -45 -11 c-83 -20 -49 -30 113 -33 130 -2
157 0 157 12 0 9 -16 16 -44 20 -26 4 -47 13 -50 22 -3 9 -6 98 -6 198 0 205
3 215 74 247 51 23 78 24 122 3 54 -26 67 -62 72 -199 2 -66 0 -151 -5 -190
l-8 -69 -45 -11 c-25 -6 -44 -15 -43 -20 2 -6 71 -11 158 -13 128 -2 155 0
155 12 0 9 -16 16 -44 20 -26 4 -47 13 -50 22 -3 9 -6 97 -6 196 0 207 5 223
85 253 57 22 105 14 144 -25 38 -38 46 -104 39 -322 l-5 -159 103 3 c108 3
137 17 65 31 -31 6 -42 14 -46 30 -2 12 -6 108 -8 212 -2 161 -6 196 -21 228
-35 71 -128 110 -220 93 -22 -4 -57 -26 -92 -56 l-57 -50 -23 34 c-43 63 -154
94 -231 65 -15 -5 -47 -29 -70 -52 l-43 -41 0 52 c0 59 2 58 -85 32z"/>
<path d="M16955 3000 c-33 -10 -77 -21 -97 -25 -56 -9 -50 -33 10 -37 l47 -3
7 -45 c8 -56 8 -273 -1 -360 l-6 -64 -45 -11 c-83 -20 -49 -30 113 -33 130 -2
157 0 157 12 0 9 -16 16 -44 20 -26 4 -47 13 -50 22 -3 9 -6 98 -6 198 0 205
3 215 74 247 51 23 78 24 122 3 54 -26 67 -62 72 -199 2 -66 0 -151 -5 -190
l-8 -69 -45 -11 c-25 -6 -44 -15 -43 -20 2 -6 71 -11 158 -13 128 -2 155 0
155 12 0 9 -16 16 -44 20 -26 4 -47 13 -50 22 -3 9 -6 97 -6 196 0 207 5 223
85 253 57 22 105 14 144 -25 38 -38 46 -104 39 -322 l-5 -159 103 3 c108 3
137 17 65 31 -31 6 -42 14 -46 30 -2 12 -6 108 -8 212 -2 161 -6 196 -21 228
-35 71 -128 110 -220 93 -22 -4 -57 -26 -92 -56 l-57 -50 -23 34 c-43 63 -154
94 -231 65 -15 -5 -47 -29 -70 -52 l-43 -41 0 52 c0 59 2 58 -85 32z"/>
<path d="M18085 3005 c-22 -8 -66 -19 -97 -25 -69 -14 -82 -40 -19 -40 21 0
43 -6 49 -12 6 -8 12 -98 14 -213 3 -168 7 -206 22 -237 23 -47 83 -78 152
-78 78 0 115 15 169 70 27 27 53 50 58 50 5 0 7 -21 5 -47 l-3 -48 108 -3 c89
-2 107 0 107 12 0 10 -13 16 -37 18 -61 5 -64 17 -62 308 1 141 -2 255 -7 255
-5 0 -43 -8 -84 -18 -41 -10 -85 -20 -97 -23 -40 -8 -28 -34 15 -34 21 0 43
-5 50 -12 8 -8 12 -62 12 -176 l0 -163 -42 -44 c-54 -56 -115 -75 -177 -56
-73 21 -76 33 -77 295 0 128 -5 231 -10 232 -5 1 -27 -4 -49 -11z"/>
<path d="M18870 3011 c-8 -5 -47 -16 -87 -24 -39 -8 -76 -18 -82 -22 -20 -12
-1 -25 38 -25 20 0 42 -5 49 -12 15 -15 17 -403 3 -441 -7 -19 -20 -27 -50
-32 -25 -4 -41 -12 -41 -21 0 -11 28 -14 155 -14 125 0 155 3 155 14 0 8 -16
16 -40 20 -31 5 -43 12 -50 32 -13 34 -13 337 1 366 16 35 82 77 131 84 57 8
111 -15 138 -58 18 -30 20 -50 20 -245 l0 -213 105 0 c82 0 105 3 105 14 0 8
-16 15 -41 19 -22 3 -44 8 -47 12 -4 4 -9 102 -12 218 -5 222 -10 247 -57 289
-48 43 -155 62 -220 37 -15 -5 -44 -25 -63 -43 -73 -67 -73 -67 -69 -6 4 57
-7 71 -41 51z"/>
<path d="M19630 3011 c-8 -5 -47 -16 -87 -24 -39 -8 -76 -18 -82 -22 -20 -12
0 -25 39 -25 29 0 42 -5 50 -19 11 -22 12 -390 1 -431 -5 -19 -16 -27 -49 -34
-24 -5 -42 -15 -42 -22 0 -11 31 -14 155 -14 125 0 155 3 155 14 0 9 -16 16
-44 20 -34 5 -45 12 -50 29 -3 12 -6 138 -6 280 0 266 -1 271 -40 248z"/>
<path d="M20035 2981 c-99 -52 -140 -90 -165 -158 -24 -65 -26 -168 -5 -239
18 -61 73 -127 129 -156 91 -47 293 -29 331 29 25 37 7 44 -55 23 -89 -31
-155 -21 -216 32 -45 40 -70 88 -84 167 -19 108 11 219 68 253 97 58 242 12
242 -77 0 -28 4 -35 19 -35 16 0 21 9 26 48 3 26 8 63 11 83 5 31 2 37 -23 49
-15 7 -66 15 -113 18 -84 4 -86 4 -165 -37z"/>
<path d="M20575 3002 c-28 -10 -65 -28 -83 -41 -30 -21 -33 -28 -30 -64 4 -58
29 -61 51 -7 20 51 69 75 136 66 77 -11 111 -47 125 -131 l7 -41 -88 -16
c-231 -45 -292 -95 -281 -234 7 -84 65 -134 155 -134 56 0 71 8 154 74 l61 49
-4 -49 -3 -49 98 -3 c77 -2 98 0 95 10 -3 7 -21 17 -41 22 -48 12 -52 34 -44
234 5 102 3 169 -5 199 -28 111 -164 163 -303 115z m205 -346 l0 -84 -41 -36
c-96 -82 -200 -69 -215 26 -10 56 18 105 70 129 35 15 134 42 179 48 4 1 7
-37 7 -83z"/>
<path d="M21610 3011 c-8 -5 -47 -16 -87 -24 -39 -8 -76 -18 -82 -22 -20 -12
0 -25 39 -25 29 0 42 -5 50 -19 11 -22 12 -390 1 -431 -5 -19 -16 -27 -49 -34
-24 -5 -42 -15 -42 -22 0 -11 31 -14 155 -14 125 0 155 3 155 14 0 9 -16 16
-44 20 -34 5 -45 12 -50 29 -3 12 -6 138 -6 280 0 266 -1 271 -40 248z"/>
<path d="M22014 2999 c-71 -27 -136 -87 -165 -151 -33 -75 -34 -201 -1 -273
27 -59 82 -119 137 -148 33 -18 57 -22 130 -22 78 0 97 4 141 27 119 63 180
175 172 316 -5 89 -22 129 -81 190 -77 79 -219 105 -333 61z m170 -39 c45 -21
89 -80 109 -145 6 -22 12 -85 12 -140 -1 -112 -20 -166 -73 -204 -59 -42 -149
-34 -205 17 -78 70 -111 297 -58 401 44 85 129 113 215 71z"/>
<path d="M22650 3011 c-8 -5 -47 -16 -87 -24 -39 -8 -76 -18 -82 -22 -20 -12
-1 -25 38 -25 20 0 42 -5 49 -12 15 -15 17 -403 3 -441 -7 -19 -20 -27 -50
-32 -25 -4 -41 -12 -41 -21 0 -11 28 -14 155 -14 125 0 155 3 155 14 0 8 -16
16 -40 20 -31 5 -43 12 -50 32 -13 34 -13 337 1 366 16 35 82 77 131 84 57 8
111 -15 138 -58 18 -30 20 -50 20 -245 l0 -213 105 0 c82 0 105 3 105 14 0 8
-16 15 -41 19 -22 3 -44 8 -47 12 -4 4 -9 102 -12 218 -5 222 -10 247 -57 289
-48 43 -155 62 -220 37 -15 -5 -44 -25 -63 -43 -73 -67 -73 -67 -69 -6 4 57
-7 71 -41 51z"/>
<path d="M24443 2999 c-29 -11 -75 -40 -102 -65 -66 -60 -96 -146 -89 -259 12
-181 127 -283 308 -273 95 6 175 39 196 80 9 17 13 32 11 35 -3 2 -28 -7 -56
-22 -162 -82 -310 -4 -336 178 l-6 47 178 1 c98 1 192 4 208 8 36 7 42 34 25
119 -10 47 -21 65 -59 103 -71 71 -172 89 -278 48z m162 -43 c35 -23 56 -70
62 -138 l6 -58 -90 0 c-50 0 -118 3 -152 6 l-62 7 7 46 c14 103 79 166 161
158 24 -3 54 -12 68 -21z"/>
<path d="M25065 2981 c-99 -52 -140 -90 -165 -158 -24 -65 -26 -168 -5 -239
18 -61 73 -127 129 -156 91 -47 293 -29 331 29 25 37 7 44 -55 23 -89 -31
-155 -21 -216 32 -45 40 -70 88 -84 167 -19 108 11 219 68 253 97 58 242 12
242 -77 0 -28 4 -35 19 -35 16 0 21 9 26 48 3 26 8 63 11 83 5 31 2 37 -23 49
-15 7 -66 15 -113 18 -84 4 -86 4 -165 -37z"/>
<path d="M26310 3011 c-8 -5 -47 -16 -87 -24 -39 -8 -76 -18 -82 -22 -20 -12
-1 -25 38 -25 20 0 42 -5 49 -12 15 -15 17 -403 3 -441 -7 -19 -20 -27 -50
-32 -25 -4 -41 -12 -41 -21 0 -11 28 -14 155 -14 125 0 155 3 155 14 0 8 -16
16 -40 20 -31 5 -43 12 -50 32 -13 34 -13 337 1 366 16 35 82 77 131 84 57 8
111 -15 138 -58 18 -30 20 -50 20 -245 l0 -213 105 0 c82 0 105 3 105 14 0 8
-16 15 -41 19 -22 3 -44 8 -47 12 -4 4 -9 102 -12 218 -5 222 -10 247 -57 289
-48 43 -155 62 -220 37 -15 -5 -44 -25 -63 -43 -73 -67 -73 -67 -69 -6 4 57
-7 71 -41 51z"/>
<path d="M27104 2999 c-71 -27 -136 -87 -165 -151 -33 -75 -34 -201 -1 -273
27 -59 82 -119 137 -148 33 -18 57 -22 130 -22 78 0 97 4 141 27 119 63 180
175 172 316 -5 89 -22 129 -81 190 -77 79 -219 105 -333 61z m170 -39 c45 -21
89 -80 109 -145 6 -22 12 -85 12 -140 -1 -112 -20 -166 -73 -204 -59 -42 -149
-34 -205 17 -78 70 -111 297 -58 401 44 85 129 113 215 71z"/>
<path d="M28164 2999 c-71 -27 -136 -87 -165 -151 -33 -75 -34 -201 -1 -273
27 -59 82 -119 137 -148 33 -18 57 -22 130 -22 78 0 97 4 141 27 119 63 180
175 172 316 -5 89 -22 129 -81 190 -77 79 -219 105 -333 61z m170 -39 c45 -21
89 -80 109 -145 6 -22 12 -85 12 -140 -1 -112 -20 -166 -73 -204 -59 -42 -149
-34 -205 17 -78 70 -111 297 -58 401 44 85 129 113 215 71z"/>
<path d="M28861 3000 c-104 -38 -153 -90 -167 -176 -13 -82 40 -172 111 -190
14 -3 25 -9 25 -13 0 -3 -21 -19 -45 -36 -72 -48 -79 -115 -15 -146 l33 -16
-56 -32 c-43 -24 -59 -40 -71 -71 -20 -51 -20 -75 3 -125 37 -82 124 -125 252
-125 136 0 254 58 314 155 26 41 30 58 30 116 0 52 -5 74 -21 96 -39 53 -74
63 -229 63 -157 0 -192 10 -187 51 5 42 36 62 105 70 151 15 247 113 234 236
l-6 53 54 0 c45 0 55 4 69 25 9 13 16 27 16 30 0 3 -39 5 -87 5 -69 0 -96 4
-132 22 -63 31 -159 34 -230 8z m145 -55 c34 -22 64 -89 64 -146 0 -120 -138
-182 -221 -100 -51 51 -62 166 -21 218 41 53 121 66 178 28z m127 -558 c36
-23 53 -79 38 -128 -32 -107 -157 -169 -282 -139 -138 33 -172 190 -58 268 32
23 41 24 155 20 91 -3 127 -8 147 -21z"/>
<path d="M31531 3000 c-104 -38 -153 -90 -167 -176 -13 -82 40 -172 111 -190
14 -3 25 -9 25 -13 0 -3 -21 -19 -45 -36 -72 -48 -79 -115 -15 -146 l33 -16
-56 -32 c-43 -24 -59 -40 -71 -71 -20 -51 -20 -75 3 -125 37 -82 124 -125 252
-125 136 0 254 58 314 155 26 41 30 58 30 116 0 52 -5 74 -21 96 -39 53 -74
63 -229 63 -157 0 -192 10 -187 51 5 42 36 62 105 70 151 15 247 113 234 236
l-6 53 54 0 c45 0 55 4 69 25 9 13 16 27 16 30 0 3 -39 5 -87 5 -69 0 -96 4
-132 22 -63 31 -159 34 -230 8z m145 -55 c34 -22 64 -89 64 -146 0 -120 -138
-182 -221 -100 -51 51 -62 166 -21 218 41 53 121 66 178 28z m127 -558 c36
-23 53 -79 38 -128 -32 -107 -157 -169 -282 -139 -138 33 -172 190 -58 268 32
23 41 24 155 20 91 -3 127 -8 147 -21z"/>
<path d="M32223 2999 c-29 -11 -75 -40 -102 -65 -66 -60 -96 -146 -89 -259 12
-181 127 -283 308 -273 95 6 175 39 196 80 9 17 13 32 11 35 -3 2 -28 -7 -56
-22 -162 -82 -310 -4 -336 178 l-6 47 178 1 c98 1 192 4 208 8 36 7 42 34 25
119 -10 47 -21 65 -59 103 -71 71 -172 89 -278 48z m162 -43 c35 -23 56 -70
62 -138 l6 -58 -90 0 c-50 0 -118 3 -152 6 l-62 7 7 46 c14 103 79 166 161
158 24 -3 54 -12 68 -21z"/>
<path d="M32790 3011 c-8 -5 -47 -16 -87 -24 -39 -8 -76 -18 -82 -22 -20 -12
-1 -25 38 -25 20 0 42 -5 49 -12 15 -15 17 -403 3 -441 -7 -19 -20 -27 -50
-32 -25 -4 -41 -12 -41 -21 0 -11 28 -14 155 -14 125 0 155 3 155 14 0 8 -16
16 -40 20 -31 5 -43 12 -50 32 -13 34 -13 337 1 366 16 35 82 77 131 84 57 8
111 -15 138 -58 18 -30 20 -50 20 -245 l0 -213 105 0 c82 0 105 3 105 14 0 8
-16 15 -41 19 -22 3 -44 8 -47 12 -4 4 -9 102 -12 218 -5 222 -10 247 -57 289
-48 43 -155 62 -220 37 -15 -5 -44 -25 -63 -43 -73 -67 -73 -67 -69 -6 4 57
-7 71 -41 51z"/>
<path d="M33585 2981 c-99 -52 -140 -90 -165 -158 -24 -65 -26 -168 -5 -239
18 -61 73 -127 129 -156 91 -47 293 -29 331 29 25 37 7 44 -55 23 -89 -31
-155 -21 -216 32 -45 40 -70 88 -84 167 -19 108 11 219 68 253 97 58 242 12
242 -77 0 -28 4 -35 19 -35 16 0 21 9 26 48 3 26 8 63 11 83 5 31 2 37 -23 49
-15 7 -66 15 -113 18 -84 4 -86 4 -165 -37z"/>
<path d="M29340 2985 c0 -9 12 -18 30 -22 39 -7 42 -14 159 -308 51 -126 96
-240 101 -252 7 -16 0 -38 -26 -95 -65 -135 -107 -167 -174 -133 -36 19 -41
16 -59 -39 -12 -36 -12 -41 5 -53 23 -17 86 -17 127 1 63 27 74 45 242 431
141 326 194 427 232 445 64 30 41 40 -87 40 -96 0 -120 -3 -120 -14 0 -8 16
-18 38 -23 28 -7 38 -14 40 -32 4 -24 -136 -391 -149 -391 -8 0 -87 193 -125
304 -34 99 -33 111 17 122 79 18 41 29 -106 32 -126 2 -145 0 -145 -13z"/>
<path d="M33920 2985 c0 -9 12 -18 30 -22 39 -7 42 -14 159 -308 51 -126 96
-240 101 -252 7 -16 0 -38 -26 -95 -65 -135 -107 -167 -174 -133 -36 19 -41
16 -59 -39 -12 -36 -12 -41 5 -53 23 -17 86 -17 127 1 63 27 74 45 242 431
141 326 194 427 232 445 64 30 41 40 -87 40 -96 0 -120 -3 -120 -14 0 -8 16
-18 38 -23 28 -7 38 -14 40 -32 4 -24 -136 -391 -149 -391 -8 0 -87 193 -125
304 -34 99 -33 111 17 122 79 18 41 29 -106 32 -126 2 -145 0 -145 -13z"/>
</g>
</svg>
